#N canvas 1 101 1011 626 10;
#X obj 299 522 vsl 8 64 0 1 0 1 empty empty empty 0 -8 0 8 -260818
-1 -1 4400 1;
#X obj 265 587 *~;
#X msg 346 506 read -resize ../../sound/voice.wav sample;
#X obj 346 526 soundfiler;
#X obj 346 547 s length;
#X obj 346 485 loadbang;
#X obj 77 172 hsl 560 15 0 1 0 0 empty empty time-position -2 -6 0
8 -233017 -1 -1 50060 1;
#X obj 212 216 vsl 15 128 0.5 2 1 0 empty empty tom 0 -8 0 8 -258113
-1 -1 7500 1;
#X msg 143 218 1;
#X floatatom 214 356 5 0 0 0 - - -;
#X obj 74 532 line~;
#X msg 74 510 \$1 200;
#X obj 74 488 *;
#X obj 90 423 r length;
#X obj 226 551 lop~ 10;
#X msg 99 447 setarray sample;
#X obj 226 531 sig~ 1;
#X msg 125 281 1;
#X msg 125 301 2;
#X msg 125 341 4;
#X obj 125 399 * 100000;
#X msg 125 321 3;
#X obj 99 571 pvoc~ sample 2048 4;
#N canvas 0 0 450 300 (subpatch) 0;
#X array words2 162650 float 0;
#X coords 0 1 162649 -1 100 70 1;
#X restore 1306 251 graph;
#X msg 381 743 bang;
#X obj 265 611 ezdac~;
#X obj 78 54 cnv 15 560 100 empty empty empty 20 12 0 14 -232576 -66577
0;
#N canvas 0 0 450 300 (subpatch) 0;
#X array sample 172284 float 0;
#X coords 0 1 172283 -1 560 100 1;
#X restore 78 53 graph;
#X msg 114 481 0 \, 4.8e+06 \$1;
#X msg 125 254 0.5;
#X msg 281 448 read -resize RiffCobaia.wav sample;
#X obj 409 305 r cima1;
#X floatatom 416 340 5 0 0 0 - - -;
#X obj 489 353 autoscale 0 1;
#X obj 527 280 r cima 2;
#X floatatom 283 347 5 0 0 0 - - -;
#X obj 527 315 autoscale 0.5 2;
#X connect 0 0 1 1;
#X connect 1 0 25 0;
#X connect 1 0 25 1;
#X connect 2 0 3 0;
#X connect 3 0 4 0;
#X connect 5 0 2 0;
#X connect 6 0 12 0;
#X connect 7 0 9 0;
#X connect 7 0 35 0;
#X connect 8 0 7 0;
#X connect 9 0 16 0;
#X connect 10 0 22 0;
#X connect 11 0 10 0;
#X connect 12 0 11 0;
#X connect 13 0 12 1;
#X connect 13 0 15 0;
#X connect 14 0 22 1;
#X connect 15 0 22 0;
#X connect 16 0 14 0;
#X connect 17 0 20 0;
#X connect 18 0 20 0;
#X connect 19 0 20 0;
#X connect 20 0 28 0;
#X connect 21 0 20 0;
#X connect 22 0 1 0;
#X connect 28 0 10 0;
#X connect 29 0 17 0;
#X connect 30 0 3 0;
#X connect 31 0 32 0;
#X connect 31 0 33 0;
#X connect 33 0 6 0;
#X connect 34 0 36 0;
#X connect 36 0 7 0;
