#N canvas 281 134 572 464 12;
#X obj 27 411 dac~;
#X floatatom 75 412 8 0 0 0 - - -;
#X obj 36 343 oggread~;
#X msg 71 170 start;
#X msg 110 226 stop;
#X msg 118 287 resume;
#X msg 36 45 open myfile.ogg;
#X text 119 168 play file from beginning;
#X text 152 226 stop (pause) playing;
#X msg 396 394 \; pd dsp 1;
#X msg 472 394 \; pd dsp 0;
#X obj 396 368 loadbang;
#X text 185 52 get latest version at;
#X text 186 38 written by Olaf Matthes <olaf.matthes@gmx.de>;
#X text 17 16 oggread~ version 0.2 - Ogg Vorbis file player;
#X msg 126 250 0;
#X msg 95 195 1;
#X obj 95 375 bng 15 250 50 0 empty empty empty 0 -6 0 8 -262144 -1
-1;
#X text 186 67 http://www.akustische-kunst.org/puredata/;
#X obj 55 102 openpanel;
#X msg 55 74 bang;
#X msg 55 129 open \$1;
#X obj 326 144 osc~ 440;
#X obj 326 176 *~ 0.2;
#X obj 227 116 mtof;
#X floatatom 223 93 5 0 0 0 - - -;
#X obj 316 106 pitch;
#X text 525 127 comment;
#X symbolatom 443 160 10 0 0 0 - - -;
#X msg 345 231 0;
#X msg 381 200 0.2;
#X msg 252 306 seek \$1;
#X floatatom 253 275 5 0 0 0 - - -;
#X msg 306 267 60;
#X connect 2 0 0 0;
#X connect 2 1 0 1;
#X connect 2 2 1 0;
#X connect 2 3 17 0;
#X connect 3 0 2 0;
#X connect 4 0 2 0;
#X connect 5 0 2 0;
#X connect 6 0 2 0;
#X connect 11 0 9 0;
#X connect 15 0 2 0;
#X connect 16 0 2 0;
#X connect 19 0 21 0;
#X connect 20 0 19 0;
#X connect 21 0 2 0;
#X connect 22 0 23 0;
#X connect 23 0 0 0;
#X connect 23 0 0 1;
#X connect 24 0 22 0;
#X connect 25 0 24 0;
#X connect 25 0 26 0;
#X connect 26 1 28 0;
#X connect 29 0 23 1;
#X connect 30 0 23 1;
#X connect 31 0 2 0;
#X connect 32 0 31 0;
#X connect 33 0 31 0;
