#N canvas 0 27 1024 686 10;
#X floatatom 27 439 5 0 0 0 - - -;
#X floatatom 83 439 5 0 0 0 - - -;
#X floatatom 63 395 6 0 0 0 - - -;
#X obj 191 164 tgl 35 0 empty empty empty 0 -6 0 8 -24198 -1 -1 25
25;
#X floatatom 571 340 12 0 0 1 value - -;
#X symbolatom 531 356 15 0 0 1 event_code - -;
#X symbolatom 492 372 15 0 0 1 event_type - -;
#X text 274 332 outlet message format:;
#X floatatom 138 343 5 0 0 1 ev_syn - -;
#X obj 111 342 +;
#X msg 111 322 1;
#X obj 16 291 route key rel abs syn;
#X obj 244 584 tgl 25 0 empty empty empty 0 -6 0 8 -195568 -1 -1 0
1;
#X floatatom 140 439 5 0 0 0 - - -;
#X obj 421 394 route abs_hat0x abs_hat0y abs_hat1x abs_hat1y;
#X floatatom 528 575 7 0 0 0 - - -;
#X obj 304 250 hid 0;
#X text 9 212 Any non-zero value starts polling \,;
#X text 8 225 0 stops the polling. If the number;
#X text 9 238 is greater than 1 \, then the poll;
#X text 9 251 delay is set to that number.;
#X obj 27 419 route rel_x rel_y rel_z rel_wheel;
#X floatatom 196 439 5 0 0 0 - - -;
#X obj 492 321 unpack s s f;
#X text 298 346 event_type event_code value;
#X obj 63 374 route abs_x abs_y abs_z abs_rx abs_ry abs_rz abs_throttle
;
#X obj 528 591 tgl 15 0 empty empty empty 0 -6 0 8 -262144 -1 -1 0
1;
#X floatatom 605 575 7 0 0 0 - - -;
#X obj 605 591 tgl 15 0 empty empty empty 0 -6 0 8 -262144 -1 -1 0
-1;
#X floatatom 113 395 6 0 0 0 - - -;
#X floatatom 163 395 6 0 0 0 - - -;
#X floatatom 213 395 6 0 0 0 - - -;
#X floatatom 263 395 6 0 0 0 - - -;
#X floatatom 313 395 6 0 0 0 - - -;
#X floatatom 363 395 6 0 0 0 - - -;
#X obj 353 585 tgl 25 0 empty empty empty 0 -6 0 8 -195568 -1 -1 0
1;
#X obj 326 585 tgl 25 0 empty empty empty 0 -6 0 8 -195568 -1 -1 0
1;
#X obj 299 584 tgl 25 0 empty empty empty 0 -6 0 8 -195568 -1 -1 0
1;
#X obj 188 584 tgl 25 0 empty empty empty 0 -6 0 8 -195568 -1 -1 0
1;
#X obj 271 584 tgl 25 0 empty empty empty 0 -6 0 8 -195568 -1 -1 0
1;
#X obj 159 584 tgl 25 0 empty empty empty 0 -6 0 8 -195568 -1 -1 0
1;
#X obj 216 584 tgl 25 0 empty empty empty 0 -6 0 8 -195568 -1 -1 0
1;
#X obj 488 578 tgl 25 0 empty empty empty 0 -6 0 8 -195568 -1 -1 0
1;
#X obj 456 578 tgl 25 0 empty empty empty 0 -6 0 8 -195568 -1 -1 0
1;
#X obj 309 502 tgl 25 0 empty empty empty 0 -6 0 8 -195568 -1 -1 0
1;
#X obj 339 502 tgl 25 0 empty empty empty 0 -6 0 8 -195568 -1 -1 0
1;
#X obj 369 502 tgl 25 0 empty empty empty 0 -6 0 8 -195568 -1 -1 0
1;
#X obj 399 502 tgl 25 0 empty empty empty 0 -6 0 8 -195568 -1 -1 0
1;
#X obj 9 460 route btn_0 btn_1 btn_2 btn_3 btn_4 btn_5 btn_6 btn_7
btn_8 btn_9 btn_10 btn_11 btn_12 btn_13 btn_14 btn_15;
#X obj 429 502 tgl 25 0 empty empty empty 0 -6 0 8 -195568 -1 -1 0
1;
#X obj 459 502 tgl 25 0 empty empty empty 0 -6 0 8 -195568 -1 -1 0
1;
#X msg 25 155 debug 0;
#N canvas 752 103 411 235 see 0;
#N canvas 108 318 543 264 route 0;
#X obj 27 14 inlet;
#X obj 72 226 outlet;
#X obj 19 226 outlet;
#X obj 172 226 outlet;
#X obj 222 204 symbol;
#X obj 222 226 outlet;
#X obj 272 204 symbol;
#X obj 272 226 outlet;
#X obj 322 204 symbol;
#X obj 322 226 outlet;
#X obj 372 204 symbol;
#X obj 372 226 outlet;
#X obj 122 225 outlet;
#X obj 422 204 symbol;
#X obj 422 226 outlet;
#X obj 472 204 symbol;
#X obj 472 226 outlet;
#X obj 26 63 route open device poll total product manufacturer transport
type vendorID productID;
#X connect 0 0 17 0;
#X connect 4 0 5 0;
#X connect 6 0 7 0;
#X connect 8 0 9 0;
#X connect 10 0 11 0;
#X connect 13 0 14 0;
#X connect 15 0 16 0;
#X connect 17 0 2 0;
#X connect 17 1 1 0;
#X connect 17 2 12 0;
#X connect 17 3 3 0;
#X connect 17 4 4 0;
#X connect 17 5 6 0;
#X connect 17 6 8 0;
#X connect 17 7 10 0;
#X connect 17 8 13 0;
#X connect 17 9 15 0;
#X restore 117 70 pd route info;
#X obj 81 96 tgl 15 0 empty empty open 0 -6 0 8 -262144 -1 -1 1 1;
#X obj 110 22 inlet;
#X obj 123 43 print info;
#X symbolatom 304 93 0 0 0 0 productID - -;
#X symbolatom 304 112 0 0 0 0 vendorID - -;
#X symbolatom 304 151 0 0 0 0 transport - -;
#X symbolatom 304 171 0 0 0 0 manufacturer - -;
#X symbolatom 186 192 0 0 0 0 product - -;
#X floatatom 97 140 5 0 0 0 device - -;
#X floatatom 97 162 5 0 0 0 poll - -;
#X symbolatom 304 131 0 0 0 0 type - -;
#X floatatom 97 182 5 0 0 0 total - -;
#X connect 0 0 1 0;
#X connect 0 1 9 0;
#X connect 0 2 10 0;
#X connect 0 3 12 0;
#X connect 0 4 8 0;
#X connect 0 5 7 0;
#X connect 0 6 6 0;
#X connect 0 7 11 0;
#X connect 0 8 5 0;
#X connect 0 9 4 0;
#X connect 2 0 0 0;
#X connect 2 0 3 0;
#X restore 420 271 pd see device info;
#N canvas 553 77 380 450 open 0;
#X obj 77 61 hradio 15 1 0 8 empty empty empty 0 -6 0 8 -262144 -1
-1 0;
#X msg 78 81 open mouse \$1;
#X obj 121 201 hradio 15 1 0 8 empty empty empty 0 -6 0 8 -262144 -1
-1 0;
#X msg 130 221 open keyboard \$1;
#X obj 50 13 hradio 15 1 0 8 empty empty empty 0 -6 0 8 -262144 -1
-1 0;
#X obj 55 417 outlet;
#X obj 85 108 hradio 15 1 0 8 empty empty empty 0 -6 0 8 -262144 -1
-1 0;
#X msg 94 128 open joystick \$1;
#X msg 59 33 open pointer \$1;
#X obj 101 155 hradio 15 1 0 8 empty empty empty 0 -6 0 8 -262144 -1
-1 0;
#X msg 110 175 open gamepad \$1;
#X obj 137 244 hradio 15 1 0 8 empty empty empty 0 -6 0 8 -262144 -1
-1 0;
#X msg 146 264 open keypad \$1;
#X obj 141 291 hradio 15 1 0 8 empty empty empty 0 -6 0 8 -262144 -1
-1 0;
#X msg 150 311 open multiaxiscontroller \$1;
#X text 155 342 or just open the first one:;
#X msg 138 363 open mouse;
#X msg 159 381 open joystick;
#X connect 0 0 1 0;
#X connect 1 0 5 0;
#X connect 2 0 3 0;
#X connect 3 0 5 0;
#X connect 4 0 8 0;
#X connect 6 0 7 0;
#X connect 7 0 5 0;
#X connect 8 0 5 0;
#X connect 9 0 10 0;
#X connect 10 0 5 0;
#X connect 11 0 12 0;
#X connect 12 0 5 0;
#X connect 13 0 14 0;
#X connect 14 0 5 0;
#X connect 16 0 5 0;
#X connect 17 0 5 0;
#X restore 203 59 pd open by device type;
#N canvas 796 51 470 320 open 0;
#X text 217 82 Gravis/Destroyer Tiltpad;
#X msg 76 81 open 0x047D 0x4008;
#X msg 73 53 open 0x046d 0xc01d;
#X text 211 53 Logitech USB-PS/2 Optical Mouse;
#X obj 10 277 outlet;
#X text 9 12 You can use the hex values of the USB vendor and product
IDs (it is not case sensitive):;
#X text 221 111 Overtone CUI v1.0;
#X msg 80 110 open 0x1043 0x0015;
#X msg 83 136 open 0x06a3 0xff12;
#X text 221 134 Saitek Cyborgforce;
#X connect 1 0 4 0;
#X connect 2 0 4 0;
#X connect 7 0 4 0;
#X connect 8 0 4 0;
#X restore 174 37 pd open by vendor/product ID;
#N canvas 114 93 467 346 test 0;
#X obj 144 45 inlet;
#X obj 88 104 route DESKTOP;
#X obj 87 158 route DESKTOP57;
#X obj 70 207 bng 15 250 50 0 empty empty empty 0 -6 0 8 -262144 -1
-1;
#X floatatom 95 212 5 0 0 0 - - -;
#X obj 148 215 spigot;
#X obj 146 256 print test;
#X obj 189 192 tgl 15 0 empty empty empty 0 -6 0 8 -262144 -1 -1 0
1;
#X obj 292 122 spigot;
#X obj 290 163 print test;
#X obj 333 99 tgl 15 0 empty empty empty 0 -6 0 8 -262144 -1 -1 0 1
;
#X connect 0 0 1 0;
#X connect 0 0 8 0;
#X connect 1 0 2 0;
#X connect 2 0 3 0;
#X connect 2 0 4 0;
#X connect 2 0 5 0;
#X connect 5 0 6 0;
#X connect 7 0 5 1;
#X connect 8 0 9 0;
#X connect 10 0 8 1;
#X restore 197 303 pd test;
#N canvas 162 133 570 420 serin 0;
#X obj 209 61 cnv 15 15 15 empty \$0-debug-canvas 0 4 8 0 14 -233017
-1 0;
#X obj 60 61 hradio 15 1 1 10 empty empty empty 0 -6 0 8 -261689 -1
-1 0;
#X obj 60 13 inlet;
#X msg 200 202 label \$1;
#X obj 200 180 makefilename %d;
#X obj 59 108 int;
#X obj 59 337 outlet;
#X msg 201 306 set \$1 \$2;
#X obj 59 266 trigger bang anything;
#X obj 201 286 list;
#X msg 60 210 debug \$1;
#X obj 200 225 send \$0-debug-canvas;
#X connect 1 0 5 0;
#X connect 2 0 1 0;
#X connect 3 0 11 0;
#X connect 4 0 3 0;
#X connect 5 0 4 0;
#X connect 5 0 10 0;
#X connect 7 0 6 0;
#X connect 8 0 6 0;
#X connect 8 1 9 0;
#X connect 9 0 7 0;
#X connect 10 0 8 0;
#X coords 0 -1 1 1 165 17 1 60 60;
#X restore 25 134 pd serin;
#X msg 262 114 open 13;
#X obj 249 300 pddp/print;
#N canvas 162 133 570 420 serin 0;
#X obj 286 61 cnv 15 30 15 empty \$0-open-canvas 13 4 8 0 14 -233017
-1 0;
#X obj 60 61 hradio 15 1 1 15 empty empty empty 0 -6 0 8 -225271 -1
-1 13;
#X obj 60 13 inlet;
#X msg 200 202 label \$1;
#X obj 200 180 makefilename %d;
#X obj 59 108 int;
#X obj 59 337 outlet;
#X msg 201 306 set \$1 \$2;
#X obj 59 266 trigger bang anything;
#X obj 201 286 list;
#X msg 60 210 open \$1;
#X obj 200 225 send \$0-open-canvas;
#X connect 1 0 5 0;
#X connect 2 0 1 0;
#X connect 3 0 11 0;
#X connect 4 0 3 0;
#X connect 5 0 4 0;
#X connect 5 0 10 0;
#X connect 7 0 6 0;
#X connect 8 0 6 0;
#X connect 8 1 9 0;
#X connect 9 0 7 0;
#X connect 10 0 8 0;
#X coords 0 -1 1 1 257 17 1 60 60;
#X restore 262 92 pd serin;
#X connect 3 0 16 0;
#X connect 8 0 9 1;
#X connect 9 0 8 0;
#X connect 10 0 9 0;
#X connect 11 0 48 0;
#X connect 11 1 21 0;
#X connect 11 2 25 0;
#X connect 11 3 10 0;
#X connect 14 0 15 0;
#X connect 14 1 27 0;
#X connect 15 0 26 0;
#X connect 16 0 11 0;
#X connect 16 0 23 0;
#X connect 16 0 55 0;
#X connect 16 0 58 0;
#X connect 16 1 52 0;
#X connect 21 0 0 0;
#X connect 21 1 1 0;
#X connect 21 2 13 0;
#X connect 21 3 22 0;
#X connect 23 0 6 0;
#X connect 23 1 5 0;
#X connect 23 2 4 0;
#X connect 25 0 2 0;
#X connect 25 1 29 0;
#X connect 25 2 30 0;
#X connect 25 3 31 0;
#X connect 25 4 32 0;
#X connect 25 5 33 0;
#X connect 25 6 34 0;
#X connect 25 7 14 0;
#X connect 27 0 28 0;
#X connect 48 0 12 0;
#X connect 48 1 35 0;
#X connect 48 2 36 0;
#X connect 48 3 37 0;
#X connect 48 4 38 0;
#X connect 48 5 39 0;
#X connect 48 6 40 0;
#X connect 48 7 41 0;
#X connect 48 8 42 0;
#X connect 48 9 43 0;
#X connect 48 10 44 0;
#X connect 48 11 45 0;
#X connect 48 12 46 0;
#X connect 48 13 47 0;
#X connect 48 14 49 0;
#X connect 48 15 50 0;
#X connect 51 0 16 0;
#X connect 53 0 16 0;
#X connect 54 0 16 0;
#X connect 56 0 51 0;
#X connect 57 0 16 0;
#X connect 59 0 57 0;
